# File created by Blade
# Date/Time:  Mon Nov 18 18:33:23 2013
# Frame Rate: 100.000 fps
#------------------------------------------------------
:FULLY-SPECIFIED
:DEGREES
272
root 52.830186 -3.946494 52.113616 -3.163909 0.138248 -125.561153
Spine 12.545944 -0.643283 -0.513653
Spine1 3.298083 1.532128 -1.332687
Spine2 0.863229 -1.062905 -1.378635
NeckDummy -0.000077 -0.131755 -0.025270 -1.468921 1.138166 -0.428379
Neck 15.532948 1.006690 27.400994
Head -0.293853 0.335310 0.198114 -34.124382 -4.030393 -0.605951
LeftShoulderDummy -0.059003 -0.120364 0.032887 -1.447842 1.018426 -0.212047
LeftShoulder 7.114571 -3.370057 13.846461
LeftArm 21.641801 50.835979 30.237549
LeftForeArm 89.916659
LeftForeArmRoll -36.570153
LeftHand -9.360285 5.360262 -4.722748
LeftHandThumb1 16.825129 12.759801
LeftHandIndex1 14.307324 43.720060
LeftHandPinky1 13.738856 48.262679
RightShoulderDummy -0.036304 -0.108213 0.056527 -1.487453 -1.138108 0.419508
RightShoulder 5.377322 4.860174 16.924540
RightArm -38.913633 69.487298 -2.115369
RightForeArm 112.142119
RightForeArmRoll 3.923477
RightHand -17.811158 -15.892505 11.479074
RightHandThumb1 -0.577237 13.247939
RightHandIndex1 13.615710 61.343007
RightHandPinky1 18.327323 69.182001
LeftUpLeg 3.684037 22.180416 -36.439070
LeftLeg 61.596192
LeftFoot 0.631084 -1.050217 -0.937735 -12.349846 10.229519 -15.162453
LeftToeBase -1.438567
RightUpLeg 10.792029 12.374749 -26.743817
RightLeg 67.704973
RightFoot -0.535668 0.459401 0.272220 -0.692755 7.287429 -34.190089
RightToeBase -0.979502
273
root 52.822343 -3.937644 52.115519 -3.155530 0.150998 -125.562647
Spine 12.528774 -0.650538 -0.515285
Spine1 3.297067 1.525746 -1.340414
Spine2 0.871980 -1.074394 -1.370742
NeckDummy -0.000253 -0.129973 -0.025709 -1.467506 1.133165 -0.426230
Neck 15.526298 1.055818 27.425441
Head -0.293691 0.333208 0.198797 -34.118253 -4.023268 -0.610360
LeftShoulderDummy -0.059263 -0.118482 0.032446 -1.446665 1.013249 -0.209006
LeftShoulder 7.077785 -3.350258 13.846220
LeftArm 21.620658 50.814303 30.224810
LeftForeArm 89.915714
LeftForeArmRoll -36.582499
LeftHand -9.376813 5.320594 -4.852652
LeftHandThumb1 16.820893 12.869793
LeftHandIndex1 14.510793 43.674123
LeftHandPinky1 13.834141 48.251804
RightShoulderDummy -0.036578 -0.106319 0.055848 -1.486277 -1.132867 0.416579
RightShoulder 5.352102 4.829245 16.897153
RightArm -38.893794 69.456088 -2.060528
RightForeArm 112.081770
RightForeArmRoll 3.789870
RightHand -17.726212 -16.277105 11.586944
RightHandThumb1 -0.463767 13.271914
RightHandIndex1 13.539659 61.685722
RightHandPinky1 18.469271 69.797190
LeftUpLeg 3.722362 22.162966 -36.407014
LeftLeg 61.555080
LeftFoot 0.665197 -1.040700 -0.933226 -13.200509 10.416206 -15.344904
LeftToeBase -0.472488
RightUpLeg 10.787032 12.383932 -26.711228
RightLeg 67.631730
RightFoot -0.539387 0.456960 0.274212 -0.740953 7.298764 -34.168075
RightToeBase -1.021186
274
root 52.817475 -3.928603 52.112674 -3.172324 0.139414 -125.603913
Spine 12.561407 -0.687759 -0.472545
Spine1 3.293027 1.519875 -1.253476
Spine2 0.829704 -0.962981 -1.436299
NeckDummy 0.000061 -0.130997 -0.024419 -1.476039 1.171189 -0.408189
Neck 15.617072 1.032882 27.410484
Head -0.293257 0.334255 0.199011 -34.148978 -4.003689 -0.604720
LeftShoulderDummy -0.057803 -0.119081 0.033431 -1.454768 1.051542 -0.192412
LeftShoulder 7.126749 -3.368784 13.787251
LeftArm 21.663166 50.806917 30.252902
LeftForeArm 89.907210
LeftForeArmRoll -36.600942
LeftHand -9.397416 5.336844 -4.845784
LeftHandThumb1 16.776047 12.819371
LeftHandIndex1 14.444497 43.653932
LeftHandPinky1 13.791009 48.257917
RightShoulderDummy -0.035755 -0.107591 0.058155 -1.494891 -1.170260 0.397675
RightShoulder 5.342708 4.910389 16.936581
RightArm -38.833637 69.446817 -2.005815
RightForeArm 112.052602
RightForeArmRoll 3.891985
RightHand -17.818192 -16.112002 11.505666
RightHandThumb1 -0.562710 13.336599
RightHandIndex1 13.624005 61.532128
RightHandPinky1 18.377327 70.204138
LeftUpLeg 3.816491 22.219789 -36.335229
LeftLeg 61.467096
LeftFoot 0.636434 -1.051097 -0.952599 -12.375080 10.166651 -15.115044
LeftToeBase -1.424752
RightUpLeg 10.745384 12.342062 -26.665899
RightLeg 67.585834
RightFoot -0.537847 0.460096 0.270102 -0.754117 7.313794 -34.176157
RightToeBase -0.994885
275
root 52.809973 -3.918737 52.111890 -3.175672 0.128937 -125.616983
Spine 12.551581 -0.688593 -0.470114
Spine1 3.293346 1.518348 -1.247099
Spine2 0.836805 -0.948480 -1.448561
NeckDummy 0.000204 -0.130898 -0.024787 -1.486621 1.180023 -0.409823
Neck 15.635102 1.072235 27.436726
Head -0.294231 0.334791 0.199605 -34.177214 -4.018786 -0.599948
LeftShoulderDummy -0.057950 -0.118945 0.033357 -1.465361 1.060034 -0.192952
LeftShoulder 7.115636 -3.358322 13.766661
LeftArm 21.629896 50.779432 30.206596
LeftForeArm 89.913321
LeftForeArmRoll -36.586679
LeftHand -9.400420 5.415498 -4.862856
LeftHandThumb1 16.774519 12.753402
LeftHandIndex1 14.385611 43.557160
LeftHandPinky1 13.734012 48.168974
RightShoulderDummy -0.035743 -0.107379 0.058589 -1.505181 -1.179773 0.399211
RightShoulder 5.304393 4.886227 16.891731
RightArm -38.922701 69.414133 -2.088762
RightForeArm 112.012311
RightForeArmRoll 3.783083
RightHand -17.789622 -16.063707 11.470358
RightHandThumb1 -0.761846 13.271219
RightHandIndex1 13.675910 61.362629
RightHandPinky1 18.807897 69.894676
LeftUpLeg 3.834758 22.231935 -36.281486
LeftLeg 61.459311
LeftFoot 0.617368 -1.050206 -0.931335 -11.993969 10.193671 -15.081292
LeftToeBase -1.760809
RightUpLeg 10.775977 12.336911 -26.612072
RightLeg 67.513036
RightFoot -0.538102 0.457508 0.270588 -0.738214 7.306403 -34.143296
RightToeBase -0.995570
276
root 52.802029 -3.909723 52.114721 -3.178152 0.130405 -125.631731
Spine 12.553919 -0.686090 -0.467186
Spine1 3.286286 1.511012 -1.233775
Spine2 0.829940 -0.939223 -1.441369
NeckDummy 0.000073 -0.129132 -0.024609 -1.493279 1.174660 -0.406898
Neck 15.657095 1.103625 27.426433
Head -0.295181 0.331723 0.199749 -34.141272 -4.047929 -0.610680
LeftShoulderDummy -0.058072 -0.117091 0.033853 -1.472239 1.054908 -0.189831
LeftShoulder 7.109974 -3.347999 13.735856
LeftArm 21.616233 50.752287 30.182880
LeftForeArm 89.888840
LeftForeArmRoll -36.582583
LeftHand -9.366220 5.491609 -4.836729
LeftHandThumb1 16.777021 12.711314
LeftHandIndex1 14.379441 43.574171
LeftHandPinky1 13.695394 48.114703
RightShoulderDummy -0.035731 -0.105552 0.059000 -1.511682 -1.174604 0.396594
RightShoulder 5.317051 4.887021 16.884299
RightArm -38.806120 69.427683 -1.945225
RightForeArm 111.951671
RightForeArmRoll 3.858541
RightHand -17.765784 -16.146353 11.656228
RightHandThumb1 -0.518473 13.229243
RightHandIndex1 13.351850 61.586061
RightHandPinky1 18.410507 70.052317
LeftUpLeg 3.886911 22.240566 -36.236888
LeftLeg 61.413539
LeftFoot 0.631971 -1.051538 -0.942438 -12.357563 10.161533 -15.151330
LeftToeBase -1.399728
RightUpLeg 10.727565 12.321398 -26.586128
RightLeg 67.465879
RightFoot -0.535281 0.457827 0.266036 -0.830072 7.330691 -34.103315
RightToeBase -1.096382
277
root 52.792431 -3.898622 52.111184 -3.200380 0.107940 -125.625842
Spine 12.557213 -0.683906 -0.467729
Spine1 3.298974 1.518641 -1.236998
Spine2 0.808724 -0.903870 -1.433236
NeckDummy 0.000362 -0.129478 -0.023923 -1.478219 1.166700 -0.401791
Neck 15.699075 1.110165 27.458093
Head -0.292493 0.330550 0.202641 -34.184665 -4.011657 -0.602546
LeftShoulderDummy -0.057921 -0.117246 0.033858 -1.457705 1.047168 -0.183398
LeftShoulder 7.112954 -3.401030 13.739326
LeftArm 21.601815 50.675477 30.185018
LeftForeArm 89.838985
LeftForeArmRoll -36.584228
LeftHand -9.350409 5.340249 -4.807622
LeftHandThumb1 16.920930 12.865825
LeftHandIndex1 14.385236 43.802563
LeftHandPinky1 13.721778 48.361605
RightShoulderDummy -0.035115 -0.105830 0.058983 -1.496641 -1.166983 0.391797
RightShoulder 5.305777 4.892826 16.862639
RightArm -38.805162 69.419488 -1.949944
RightForeArm 111.920189
RightForeArmRoll 3.851894
RightHand -17.753063 -16.091179 11.648813
RightHandThumb1 -0.495840 13.208951
RightHandIndex1 13.299895 61.533811
RightHandPinky1 18.322317 69.683422
LeftUpLeg 3.904188 22.259893 -36.170729
LeftLeg 61.360286
LeftFoot 0.631543 -1.051566 -0.943619 -12.348300 10.136882 -15.140858
LeftToeBase -1.408861
RightUpLeg 10.740767 12.287472 -26.508032
RightLeg 67.401981
RightFoot -0.538803 0.457579 0.264043 -0.804669 7.330911 -34.098926
RightToeBase -1.056733
278
root 52.783483 -3.888645 52.112030 -3.206755 0.104216 -125.622373
Spine 12.545429 -0.680934 -0.469115
Spine1 3.299011 1.520178 -1.247727
Spine2 0.822590 -0.888509 -1.493498
NeckDummy 0.000559 -0.130239 -0.024177 -1.474255 1.208379 -0.404069
Neck 15.717492 1.112473 27.511173
Head -0.292758 0.330480 0.202858 -34.221671 -3.979479 -0.621217
LeftShoulderDummy -0.056504 -0.117552 0.033082 -1.452639 1.088775 -0.189750
LeftShoulder 7.157048 -3.400269 13.746525
LeftArm 21.650321 50.625411 30.215335
LeftForeArm 89.808005
LeftForeArmRoll -36.573154
LeftHand -9.407979 5.295742 -4.776116
LeftHandThumb1 16.887598 12.818450
LeftHandIndex1 14.370437 43.792391
LeftHandPinky1 13.756112 48.362348
RightShoulderDummy -0.034929 -0.106565 0.059499 -1.492360 -1.208970 0.393664
RightShoulder 5.299874 4.911810 16.817502
RightArm -38.827542 69.421546 -1.958795
RightForeArm 111.894671
RightForeArmRoll 3.826137
RightHand -17.747093 -16.324612 11.650616
RightHandThumb1 -0.393655 13.277534
RightHandIndex1 13.385505 61.811823
RightHandPinky1 18.461648 69.885680
LeftUpLeg 3.932028 22.253834 -36.122008
LeftLeg 61.314546
LeftFoot 0.632568 -1.050953 -0.944038 -12.345480 10.122821 -15.133344
LeftToeBase -1.408857
RightUpLeg 10.776930 12.309331 -26.443798
RightLeg 67.332730
RightFoot -0.541808 0.459732 0.264020 -0.832245 7.294665 -34.099629
RightToeBase -0.996322
279
root 52.771987 -3.878457 52.113049 -3.217802 0.103943 -125.596896
Spine 12.503918 -0.659371 -0.497423
Spine1 3.291598 1.517537 -1.295960
Spine2 0.897530 -0.945311 -1.405692
NeckDummy 0.000388 -0.129795 -0.026729 -1.499603 1.151559 -0.415221
Neck 15.726106 1.205218 27.553829
Head -0.293762 0.329826 0.204755 -34.227466 -4.002097 -0.644620
LeftShoulderDummy -0.057153 -0.117255 0.032555 -1.478438 1.032492 -0.201181
LeftShoulder 7.161336 -3.346245 13.725114
LeftArm 21.688434 50.602539 30.231761
LeftForeArm 89.758544
LeftForeArmRoll -36.602484
LeftHand -9.402347 5.281809 -4.757486
LeftHandThumb1 16.899045 12.857073
LeftHandIndex1 14.324998 43.747928
LeftHandPinky1 13.776188 48.365201
RightShoulderDummy -0.035631 -0.105825 0.056929 -1.517664 -1.152455 0.404667
RightShoulder 5.324554 4.836335 16.769805
RightArm -38.758990 69.392859 -1.940087
RightForeArm 111.883737
RightForeArmRoll 3.823999
RightHand -17.764525 -15.981875 11.432312
RightHandThumb1 -0.339443 13.338325
RightHandIndex1 13.531820 61.413825
RightHandPinky1 18.651100 69.791183
LeftUpLeg 3.930009 22.222931 -36.072900
LeftLeg 61.275361
LeftFoot 0.631449 -1.051646 -0.942110 -12.373507 10.131149 -15.136009
LeftToeBase -1.415880
RightUpLeg 10.773107 12.314209 -26.379910
RightLeg 67.250046
RightFoot -0.539115 0.456665 0.269839 -0.847804 7.341360 -34.017450
RightToeBase -1.057538
